<?xml version="1.0" encoding="utf-8" standalone="no"?>
<!DOCTYPE svg PUBLIC "-//W3C//DTD SVG 1.1//EN"
  "http://www.w3.org/Graphics/SVG/1.1/DTD/svg11.dtd">
<svg xmlns:xlink="http://www.w3.org/1999/xlink" width="576pt" height="360pt" viewBox="0 0 576 360" xmlns="http://www.w3.org/2000/svg" version="1.1">
 <metadata>
  <rdf:RDF xmlns:dc="http://purl.org/dc/elements/1.1/" xmlns:cc="http://creativecommons.org/ns#" xmlns:rdf="http://www.w3.org/1999/02/22-rdf-syntax-ns#">
   <cc:Work>
    <dc:type rdf:resource="http://purl.org/dc/dcmitype/StillImage"/>
    <dc:date>2025-09-19T13:18:38.709638</dc:date>
    <dc:format>image/svg+xml</dc:format>
    <dc:creator>
     <cc:Agent>
      <dc:title>Matplotlib v3.10.6, https://matplotlib.org/</dc:title>
     </cc:Agent>
    </dc:creator>
   </cc:Work>
  </rdf:RDF>
 </metadata>
 <defs>
  <style type="text/css">*{stroke-linejoin: round; stroke-linecap: butt}</style>
 </defs>
 <g id="figure_1">
  <g id="patch_1">
   <path d="M 0 360 
L 576 360 
L 576 0 
L 0 0 
z
" style="fill: #ffffff"/>
  </g>
  <g id="axes_1">
   <g id="patch_2">
    <path d="M 59.678125 313.133438 
L 563.04 313.133438 
L 563.04 29.151563 
L 59.678125 29.151563 
z
" style="fill: #ffffff"/>
   </g>
   <g id="matplotlib.axis_1">
    <g id="xtick_1">
     <g id="line2d_1">
      <path d="M 81.895019 313.133438 
L 81.895019 29.151563 
" clip-path="url(#pda61b2f42a)" style="fill: none; stroke: #cccccc; stroke-linecap: round"/>
     </g>
     <g id="text_1">
      <!-- 0 -->
      <g style="fill: #262626" transform="translate(79.114551 329.79125) scale(0.1 -0.1)">
       <defs>
        <path id="ArialMT-30" d="M 266 2259 
Q 266 3072 433 3567 
Q 600 4063 929 4331 
Q 1259 4600 1759 4600 
Q 2128 4600 2406 4451 
Q 2684 4303 2865 4023 
Q 3047 3744 3150 3342 
Q 3253 2941 3253 2259 
Q 3253 1453 3087 958 
Q 2922 463 2592 192 
Q 2263 -78 1759 -78 
Q 1097 -78 719 397 
Q 266 969 266 2259 
z
M 844 2259 
Q 844 1131 1108 757 
Q 1372 384 1759 384 
Q 2147 384 2411 759 
Q 2675 1134 2675 2259 
Q 2675 3391 2411 3762 
Q 2147 4134 1753 4134 
Q 1366 4134 1134 3806 
Q 844 3388 844 2259 
z
" transform="scale(0.015625)"/>
       </defs>
       <use xlink:href="#ArialMT-30"/>
      </g>
     </g>
    </g>
    <g id="xtick_2">
     <g id="line2d_2">
      <path d="M 148.214107 313.133438 
L 148.214107 29.151563 
" clip-path="url(#pda61b2f42a)" style="fill: none; stroke: #cccccc; stroke-linecap: round"/>
     </g>
     <g id="text_2">
      <!-- 100 -->
      <g style="fill: #262626" transform="translate(139.872701 329.79125) scale(0.1 -0.1)">
       <defs>
        <path id="ArialMT-31" d="M 2384 0 
L 1822 0 
L 1822 3584 
Q 1619 3391 1289 3197 
Q 959 3003 697 2906 
L 697 3450 
Q 1169 3672 1522 3987 
Q 1875 4303 2022 4600 
L 2384 4600 
L 2384 0 
z
" transform="scale(0.015625)"/>
       </defs>
       <use xlink:href="#ArialMT-31"/>
       <use xlink:href="#ArialMT-30" transform="translate(55.615234 0)"/>
       <use xlink:href="#ArialMT-30" transform="translate(111.230469 0)"/>
      </g>
     </g>
    </g>
    <g id="xtick_3">
     <g id="line2d_3">
      <path d="M 214.533195 313.133438 
L 214.533195 29.151563 
" clip-path="url(#pda61b2f42a)" style="fill: none; stroke: #cccccc; stroke-linecap: round"/>
     </g>
     <g id="text_3">
      <!-- 200 -->
      <g style="fill: #262626" transform="translate(206.191788 329.79125) scale(0.1 -0.1)">
       <defs>
        <path id="ArialMT-32" d="M 3222 541 
L 3222 0 
L 194 0 
Q 188 203 259 391 
Q 375 700 629 1000 
Q 884 1300 1366 1694 
Q 2113 2306 2375 2664 
Q 2638 3022 2638 3341 
Q 2638 3675 2398 3904 
Q 2159 4134 1775 4134 
Q 1369 4134 1125 3890 
Q 881 3647 878 3216 
L 300 3275 
Q 359 3922 746 4261 
Q 1134 4600 1788 4600 
Q 2447 4600 2831 4234 
Q 3216 3869 3216 3328 
Q 3216 3053 3103 2787 
Q 2991 2522 2730 2228 
Q 2469 1934 1863 1422 
Q 1356 997 1212 845 
Q 1069 694 975 541 
L 3222 541 
z
" transform="scale(0.015625)"/>
       </defs>
       <use xlink:href="#ArialMT-32"/>
       <use xlink:href="#ArialMT-30" transform="translate(55.615234 0)"/>
       <use xlink:href="#ArialMT-30" transform="translate(111.230469 0)"/>
      </g>
     </g>
    </g>
    <g id="xtick_4">
     <g id="line2d_4">
      <path d="M 280.852282 313.133438 
L 280.852282 29.151563 
" clip-path="url(#pda61b2f42a)" style="fill: none; stroke: #cccccc; stroke-linecap: round"/>
     </g>
     <g id="text_4">
      <!-- 300 -->
      <g style="fill: #262626" transform="translate(272.510876 329.79125) scale(0.1 -0.1)">
       <defs>
        <path id="ArialMT-33" d="M 269 1209 
L 831 1284 
Q 928 806 1161 595 
Q 1394 384 1728 384 
Q 2125 384 2398 659 
Q 2672 934 2672 1341 
Q 2672 1728 2419 1979 
Q 2166 2231 1775 2231 
Q 1616 2231 1378 2169 
L 1441 2663 
Q 1497 2656 1531 2656 
Q 1891 2656 2178 2843 
Q 2466 3031 2466 3422 
Q 2466 3731 2256 3934 
Q 2047 4138 1716 4138 
Q 1388 4138 1169 3931 
Q 950 3725 888 3313 
L 325 3413 
Q 428 3978 793 4289 
Q 1159 4600 1703 4600 
Q 2078 4600 2393 4439 
Q 2709 4278 2876 4000 
Q 3044 3722 3044 3409 
Q 3044 3113 2884 2869 
Q 2725 2625 2413 2481 
Q 2819 2388 3044 2092 
Q 3269 1797 3269 1353 
Q 3269 753 2831 336 
Q 2394 -81 1725 -81 
Q 1122 -81 723 278 
Q 325 638 269 1209 
z
" transform="scale(0.015625)"/>
       </defs>
       <use xlink:href="#ArialMT-33"/>
       <use xlink:href="#ArialMT-30" transform="translate(55.615234 0)"/>
       <use xlink:href="#ArialMT-30" transform="translate(111.230469 0)"/>
      </g>
     </g>
    </g>
    <g id="xtick_5">
     <g id="line2d_5">
      <path d="M 347.17137 313.133438 
L 347.17137 29.151563 
" clip-path="url(#pda61b2f42a)" style="fill: none; stroke: #cccccc; stroke-linecap: round"/>
     </g>
     <g id="text_5">
      <!-- 400 -->
      <g style="fill: #262626" transform="translate(338.829964 329.79125) scale(0.1 -0.1)">
       <defs>
        <path id="ArialMT-34" d="M 2069 0 
L 2069 1097 
L 81 1097 
L 81 1613 
L 2172 4581 
L 2631 4581 
L 2631 1613 
L 3250 1613 
L 3250 1097 
L 2631 1097 
L 2631 0 
L 2069 0 
z
M 2069 1613 
L 2069 3678 
L 634 1613 
L 2069 1613 
z
" transform="scale(0.015625)"/>
       </defs>
       <use xlink:href="#ArialMT-34"/>
       <use xlink:href="#ArialMT-30" transform="translate(55.615234 0)"/>
       <use xlink:href="#ArialMT-30" transform="translate(111.230469 0)"/>
      </g>
     </g>
    </g>
    <g id="xtick_6">
     <g id="line2d_6">
      <path d="M 413.490457 313.133438 
L 413.490457 29.151563 
" clip-path="url(#pda61b2f42a)" style="fill: none; stroke: #cccccc; stroke-linecap: round"/>
     </g>
     <g id="text_6">
      <!-- 500 -->
      <g style="fill: #262626" transform="translate(405.149051 329.79125) scale(0.1 -0.1)">
       <defs>
        <path id="ArialMT-35" d="M 266 1200 
L 856 1250 
Q 922 819 1161 601 
Q 1400 384 1738 384 
Q 2144 384 2425 690 
Q 2706 997 2706 1503 
Q 2706 1984 2436 2262 
Q 2166 2541 1728 2541 
Q 1456 2541 1237 2417 
Q 1019 2294 894 2097 
L 366 2166 
L 809 4519 
L 3088 4519 
L 3088 3981 
L 1259 3981 
L 1013 2750 
Q 1425 3038 1878 3038 
Q 2478 3038 2890 2622 
Q 3303 2206 3303 1553 
Q 3303 931 2941 478 
Q 2500 -78 1738 -78 
Q 1113 -78 717 272 
Q 322 622 266 1200 
z
" transform="scale(0.015625)"/>
       </defs>
       <use xlink:href="#ArialMT-35"/>
       <use xlink:href="#ArialMT-30" transform="translate(55.615234 0)"/>
       <use xlink:href="#ArialMT-30" transform="translate(111.230469 0)"/>
      </g>
     </g>
    </g>
    <g id="xtick_7">
     <g id="line2d_7">
      <path d="M 479.809545 313.133438 
L 479.809545 29.151563 
" clip-path="url(#pda61b2f42a)" style="fill: none; stroke: #cccccc; stroke-linecap: round"/>
     </g>
     <g id="text_7">
      <!-- 600 -->
      <g style="fill: #262626" transform="translate(471.468139 329.79125) scale(0.1 -0.1)">
       <defs>
        <path id="ArialMT-36" d="M 3184 3459 
L 2625 3416 
Q 2550 3747 2413 3897 
Q 2184 4138 1850 4138 
Q 1581 4138 1378 3988 
Q 1113 3794 959 3422 
Q 806 3050 800 2363 
Q 1003 2672 1297 2822 
Q 1591 2972 1913 2972 
Q 2475 2972 2870 2558 
Q 3266 2144 3266 1488 
Q 3266 1056 3080 686 
Q 2894 316 2569 119 
Q 2244 -78 1831 -78 
Q 1128 -78 684 439 
Q 241 956 241 2144 
Q 241 3472 731 4075 
Q 1159 4600 1884 4600 
Q 2425 4600 2770 4297 
Q 3116 3994 3184 3459 
z
M 888 1484 
Q 888 1194 1011 928 
Q 1134 663 1356 523 
Q 1578 384 1822 384 
Q 2178 384 2434 671 
Q 2691 959 2691 1453 
Q 2691 1928 2437 2201 
Q 2184 2475 1800 2475 
Q 1419 2475 1153 2201 
Q 888 1928 888 1484 
z
" transform="scale(0.015625)"/>
       </defs>
       <use xlink:href="#ArialMT-36"/>
       <use xlink:href="#ArialMT-30" transform="translate(55.615234 0)"/>
       <use xlink:href="#ArialMT-30" transform="translate(111.230469 0)"/>
      </g>
     </g>
    </g>
    <g id="xtick_8">
     <g id="line2d_8">
      <path d="M 546.128633 313.133438 
L 546.128633 29.151563 
" clip-path="url(#pda61b2f42a)" style="fill: none; stroke: #cccccc; stroke-linecap: round"/>
     </g>
     <g id="text_8">
      <!-- 700 -->
      <g style="fill: #262626" transform="translate(537.787226 329.79125) scale(0.1 -0.1)">
       <defs>
        <path id="ArialMT-37" d="M 303 3981 
L 303 4522 
L 3269 4522 
L 3269 4084 
Q 2831 3619 2401 2847 
Q 1972 2075 1738 1259 
Q 1569 684 1522 0 
L 944 0 
Q 953 541 1156 1306 
Q 1359 2072 1739 2783 
Q 2119 3494 2547 3981 
L 303 3981 
z
" transform="scale(0.015625)"/>
       </defs>
       <use xlink:href="#ArialMT-37"/>
       <use xlink:href="#ArialMT-30" transform="translate(55.615234 0)"/>
       <use xlink:href="#ArialMT-30" transform="translate(111.230469 0)"/>
      </g>
     </g>
    </g>
    <g id="text_9">
     <!-- ATA (minutes) -->
     <g style="fill: #262626" transform="translate(274.235 344.514375) scale(0.12 -0.12)">
      <defs>
       <path id="ArialMT-41" d="M -9 0 
L 1750 4581 
L 2403 4581 
L 4278 0 
L 3588 0 
L 3053 1388 
L 1138 1388 
L 634 0 
L -9 0 
z
M 1313 1881 
L 2866 1881 
L 2388 3150 
Q 2169 3728 2063 4100 
Q 1975 3659 1816 3225 
L 1313 1881 
z
" transform="scale(0.015625)"/>
       <path id="ArialMT-54" d="M 1659 0 
L 1659 4041 
L 150 4041 
L 150 4581 
L 3781 4581 
L 3781 4041 
L 2266 4041 
L 2266 0 
L 1659 0 
z
" transform="scale(0.015625)"/>
       <path id="ArialMT-20" transform="scale(0.015625)"/>
       <path id="ArialMT-28" d="M 1497 -1347 
Q 1031 -759 709 28 
Q 388 816 388 1659 
Q 388 2403 628 3084 
Q 909 3875 1497 4659 
L 1900 4659 
Q 1522 4009 1400 3731 
Q 1209 3300 1100 2831 
Q 966 2247 966 1656 
Q 966 153 1900 -1347 
L 1497 -1347 
z
" transform="scale(0.015625)"/>
       <path id="ArialMT-6d" d="M 422 0 
L 422 3319 
L 925 3319 
L 925 2853 
Q 1081 3097 1340 3245 
Q 1600 3394 1931 3394 
Q 2300 3394 2536 3241 
Q 2772 3088 2869 2813 
Q 3263 3394 3894 3394 
Q 4388 3394 4653 3120 
Q 4919 2847 4919 2278 
L 4919 0 
L 4359 0 
L 4359 2091 
Q 4359 2428 4304 2576 
Q 4250 2725 4106 2815 
Q 3963 2906 3769 2906 
Q 3419 2906 3187 2673 
Q 2956 2441 2956 1928 
L 2956 0 
L 2394 0 
L 2394 2156 
Q 2394 2531 2256 2718 
Q 2119 2906 1806 2906 
Q 1569 2906 1367 2781 
Q 1166 2656 1075 2415 
Q 984 2175 984 1722 
L 984 0 
L 422 0 
z
" transform="scale(0.015625)"/>
       <path id="ArialMT-69" d="M 425 3934 
L 425 4581 
L 988 4581 
L 988 3934 
L 425 3934 
z
M 425 0 
L 425 3319 
L 988 3319 
L 988 0 
L 425 0 
z
" transform="scale(0.015625)"/>
       <path id="ArialMT-6e" d="M 422 0 
L 422 3319 
L 928 3319 
L 928 2847 
Q 1294 3394 1984 3394 
Q 2284 3394 2536 3286 
Q 2788 3178 2913 3003 
Q 3038 2828 3088 2588 
Q 3119 2431 3119 2041 
L 3119 0 
L 2556 0 
L 2556 2019 
Q 2556 2363 2490 2533 
Q 2425 2703 2258 2804 
Q 2091 2906 1866 2906 
Q 1506 2906 1245 2678 
Q 984 2450 984 1813 
L 984 0 
L 422 0 
z
" transform="scale(0.015625)"/>
       <path id="ArialMT-75" d="M 2597 0 
L 2597 488 
Q 2209 -75 1544 -75 
Q 1250 -75 995 37 
Q 741 150 617 320 
Q 494 491 444 738 
Q 409 903 409 1263 
L 409 3319 
L 972 3319 
L 972 1478 
Q 972 1038 1006 884 
Q 1059 663 1231 536 
Q 1403 409 1656 409 
Q 1909 409 2131 539 
Q 2353 669 2445 892 
Q 2538 1116 2538 1541 
L 2538 3319 
L 3100 3319 
L 3100 0 
L 2597 0 
z
" transform="scale(0.015625)"/>
       <path id="ArialMT-74" d="M 1650 503 
L 1731 6 
Q 1494 -44 1306 -44 
Q 1000 -44 831 53 
Q 663 150 594 308 
Q 525 466 525 972 
L 525 2881 
L 113 2881 
L 113 3319 
L 525 3319 
L 525 4141 
L 1084 4478 
L 1084 3319 
L 1650 3319 
L 1650 2881 
L 1084 2881 
L 1084 941 
Q 1084 700 1114 631 
Q 1144 563 1211 522 
Q 1278 481 1403 481 
Q 1497 481 1650 503 
z
" transform="scale(0.015625)"/>
       <path id="ArialMT-65" d="M 2694 1069 
L 3275 997 
Q 3138 488 2766 206 
Q 2394 -75 1816 -75 
Q 1088 -75 661 373 
Q 234 822 234 1631 
Q 234 2469 665 2931 
Q 1097 3394 1784 3394 
Q 2450 3394 2872 2941 
Q 3294 2488 3294 1666 
Q 3294 1616 3291 1516 
L 816 1516 
Q 847 969 1125 678 
Q 1403 388 1819 388 
Q 2128 388 2347 550 
Q 2566 713 2694 1069 
z
M 847 1978 
L 2700 1978 
Q 2663 2397 2488 2606 
Q 2219 2931 1791 2931 
Q 1403 2931 1139 2672 
Q 875 2413 847 1978 
z
" transform="scale(0.015625)"/>
       <path id="ArialMT-73" d="M 197 991 
L 753 1078 
Q 800 744 1014 566 
Q 1228 388 1613 388 
Q 2000 388 2187 545 
Q 2375 703 2375 916 
Q 2375 1106 2209 1216 
Q 2094 1291 1634 1406 
Q 1016 1563 777 1677 
Q 538 1791 414 1992 
Q 291 2194 291 2438 
Q 291 2659 392 2848 
Q 494 3038 669 3163 
Q 800 3259 1026 3326 
Q 1253 3394 1513 3394 
Q 1903 3394 2198 3281 
Q 2494 3169 2634 2976 
Q 2775 2784 2828 2463 
L 2278 2388 
Q 2241 2644 2061 2787 
Q 1881 2931 1553 2931 
Q 1166 2931 1000 2803 
Q 834 2675 834 2503 
Q 834 2394 903 2306 
Q 972 2216 1119 2156 
Q 1203 2125 1616 2013 
Q 2213 1853 2448 1751 
Q 2684 1650 2818 1456 
Q 2953 1263 2953 975 
Q 2953 694 2789 445 
Q 2625 197 2315 61 
Q 2006 -75 1616 -75 
Q 969 -75 630 194 
Q 291 463 197 991 
z
" transform="scale(0.015625)"/>
       <path id="ArialMT-29" d="M 791 -1347 
L 388 -1347 
Q 1322 153 1322 1656 
Q 1322 2244 1188 2822 
Q 1081 3291 891 3722 
Q 769 4003 388 4659 
L 791 4659 
Q 1378 3875 1659 3084 
Q 1900 2403 1900 1659 
Q 1900 816 1576 28 
Q 1253 -759 791 -1347 
z
" transform="scale(0.015625)"/>
      </defs>
      <use xlink:href="#ArialMT-41"/>
      <use xlink:href="#ArialMT-54" transform="translate(59.324219 0)"/>
      <use xlink:href="#ArialMT-41" transform="translate(113.033203 0)"/>
      <use xlink:href="#ArialMT-20" transform="translate(174.232422 0)"/>
      <use xlink:href="#ArialMT-28" transform="translate(202.015625 0)"/>
      <use xlink:href="#ArialMT-6d" transform="translate(235.316406 0)"/>
      <use xlink:href="#ArialMT-69" transform="translate(318.617188 0)"/>
      <use xlink:href="#ArialMT-6e" transform="translate(340.833984 0)"/>
      <use xlink:href="#ArialMT-75" transform="translate(396.449219 0)"/>
      <use xlink:href="#ArialMT-74" transform="translate(452.064453 0)"/>
      <use xlink:href="#ArialMT-65" transform="translate(479.847656 0)"/>
      <use xlink:href="#ArialMT-73" transform="translate(535.462891 0)"/>
      <use xlink:href="#ArialMT-29" transform="translate(585.462891 0)"/>
     </g>
    </g>
   </g>
   <g id="matplotlib.axis_2">
    <g id="ytick_1">
     <g id="line2d_9">
      <path d="M 59.678125 313.133438 
L 563.04 313.133438 
" clip-path="url(#pda61b2f42a)" style="fill: none; stroke: #cccccc; stroke-linecap: round"/>
     </g>
     <g id="text_10">
      <!-- 0 -->
      <g style="fill: #262626" transform="translate(44.617187 316.712344) scale(0.1 -0.1)">
       <use xlink:href="#ArialMT-30"/>
      </g>
     </g>
    </g>
    <g id="ytick_2">
     <g id="line2d_10">
      <path d="M 59.678125 278.819947 
L 563.04 278.819947 
" clip-path="url(#pda61b2f42a)" style="fill: none; stroke: #cccccc; stroke-linecap: round"/>
     </g>
     <g id="text_11">
      <!-- 1000 -->
      <g style="fill: #262626" transform="translate(27.934375 282.398854) scale(0.1 -0.1)">
       <use xlink:href="#ArialMT-31"/>
       <use xlink:href="#ArialMT-30" transform="translate(55.615234 0)"/>
       <use xlink:href="#ArialMT-30" transform="translate(111.230469 0)"/>
       <use xlink:href="#ArialMT-30" transform="translate(166.845703 0)"/>
      </g>
     </g>
    </g>
    <g id="ytick_3">
     <g id="line2d_11">
      <path d="M 59.678125 244.506457 
L 563.04 244.506457 
" clip-path="url(#pda61b2f42a)" style="fill: none; stroke: #cccccc; stroke-linecap: round"/>
     </g>
     <g id="text_12">
      <!-- 2000 -->
      <g style="fill: #262626" transform="translate(27.934375 248.085364) scale(0.1 -0.1)">
       <use xlink:href="#ArialMT-32"/>
       <use xlink:href="#ArialMT-30" transform="translate(55.615234 0)"/>
       <use xlink:href="#ArialMT-30" transform="translate(111.230469 0)"/>
       <use xlink:href="#ArialMT-30" transform="translate(166.845703 0)"/>
      </g>
     </g>
    </g>
    <g id="ytick_4">
     <g id="line2d_12">
      <path d="M 59.678125 210.192967 
L 563.04 210.192967 
" clip-path="url(#pda61b2f42a)" style="fill: none; stroke: #cccccc; stroke-linecap: round"/>
     </g>
     <g id="text_13">
      <!-- 3000 -->
      <g style="fill: #262626" transform="translate(27.934375 213.771874) scale(0.1 -0.1)">
       <use xlink:href="#ArialMT-33"/>
       <use xlink:href="#ArialMT-30" transform="translate(55.615234 0)"/>
       <use xlink:href="#ArialMT-30" transform="translate(111.230469 0)"/>
       <use xlink:href="#ArialMT-30" transform="translate(166.845703 0)"/>
      </g>
     </g>
    </g>
    <g id="ytick_5">
     <g id="line2d_13">
      <path d="M 59.678125 175.879477 
L 563.04 175.879477 
" clip-path="url(#pda61b2f42a)" style="fill: none; stroke: #cccccc; stroke-linecap: round"/>
     </g>
     <g id="text_14">
      <!-- 4000 -->
      <g style="fill: #262626" transform="translate(27.934375 179.458384) scale(0.1 -0.1)">
       <use xlink:href="#ArialMT-34"/>
       <use xlink:href="#ArialMT-30" transform="translate(55.615234 0)"/>
       <use xlink:href="#ArialMT-30" transform="translate(111.230469 0)"/>
       <use xlink:href="#ArialMT-30" transform="translate(166.845703 0)"/>
      </g>
     </g>
    </g>
    <g id="ytick_6">
     <g id="line2d_14">
      <path d="M 59.678125 141.565987 
L 563.04 141.565987 
" clip-path="url(#pda61b2f42a)" style="fill: none; stroke: #cccccc; stroke-linecap: round"/>
     </g>
     <g id="text_15">
      <!-- 5000 -->
      <g style="fill: #262626" transform="translate(27.934375 145.144894) scale(0.1 -0.1)">
       <use xlink:href="#ArialMT-35"/>
       <use xlink:href="#ArialMT-30" transform="translate(55.615234 0)"/>
       <use xlink:href="#ArialMT-30" transform="translate(111.230469 0)"/>
       <use xlink:href="#ArialMT-30" transform="translate(166.845703 0)"/>
      </g>
     </g>
    </g>
    <g id="ytick_7">
     <g id="line2d_15">
      <path d="M 59.678125 107.252497 
L 563.04 107.252497 
" clip-path="url(#pda61b2f42a)" style="fill: none; stroke: #cccccc; stroke-linecap: round"/>
     </g>
     <g id="text_16">
      <!-- 6000 -->
      <g style="fill: #262626" transform="translate(27.934375 110.831403) scale(0.1 -0.1)">
       <use xlink:href="#ArialMT-36"/>
       <use xlink:href="#ArialMT-30" transform="translate(55.615234 0)"/>
       <use xlink:href="#ArialMT-30" transform="translate(111.230469 0)"/>
       <use xlink:href="#ArialMT-30" transform="translate(166.845703 0)"/>
      </g>
     </g>
    </g>
    <g id="ytick_8">
     <g id="line2d_16">
      <path d="M 59.678125 72.939007 
L 563.04 72.939007 
" clip-path="url(#pda61b2f42a)" style="fill: none; stroke: #cccccc; stroke-linecap: round"/>
     </g>
     <g id="text_17">
      <!-- 7000 -->
      <g style="fill: #262626" transform="translate(27.934375 76.517913) scale(0.1 -0.1)">
       <use xlink:href="#ArialMT-37"/>
       <use xlink:href="#ArialMT-30" transform="translate(55.615234 0)"/>
       <use xlink:href="#ArialMT-30" transform="translate(111.230469 0)"/>
       <use xlink:href="#ArialMT-30" transform="translate(166.845703 0)"/>
      </g>
     </g>
    </g>
    <g id="ytick_9">
     <g id="line2d_17">
      <path d="M 59.678125 38.625517 
L 563.04 38.625517 
" clip-path="url(#pda61b2f42a)" style="fill: none; stroke: #cccccc; stroke-linecap: round"/>
     </g>
     <g id="text_18">
      <!-- 8000 -->
      <g style="fill: #262626" transform="translate(27.934375 42.204423) scale(0.1 -0.1)">
       <defs>
        <path id="ArialMT-38" d="M 1131 2484 
Q 781 2613 612 2850 
Q 444 3088 444 3419 
Q 444 3919 803 4259 
Q 1163 4600 1759 4600 
Q 2359 4600 2725 4251 
Q 3091 3903 3091 3403 
Q 3091 3084 2923 2848 
Q 2756 2613 2416 2484 
Q 2838 2347 3058 2040 
Q 3278 1734 3278 1309 
Q 3278 722 2862 322 
Q 2447 -78 1769 -78 
Q 1091 -78 675 323 
Q 259 725 259 1325 
Q 259 1772 486 2073 
Q 713 2375 1131 2484 
z
M 1019 3438 
Q 1019 3113 1228 2906 
Q 1438 2700 1772 2700 
Q 2097 2700 2305 2904 
Q 2513 3109 2513 3406 
Q 2513 3716 2298 3927 
Q 2084 4138 1766 4138 
Q 1444 4138 1231 3931 
Q 1019 3725 1019 3438 
z
M 838 1322 
Q 838 1081 952 856 
Q 1066 631 1291 507 
Q 1516 384 1775 384 
Q 2178 384 2440 643 
Q 2703 903 2703 1303 
Q 2703 1709 2433 1975 
Q 2163 2241 1756 2241 
Q 1359 2241 1098 1978 
Q 838 1716 838 1322 
z
" transform="scale(0.015625)"/>
       </defs>
       <use xlink:href="#ArialMT-38"/>
       <use xlink:href="#ArialMT-30" transform="translate(55.615234 0)"/>
       <use xlink:href="#ArialMT-30" transform="translate(111.230469 0)"/>
       <use xlink:href="#ArialMT-30" transform="translate(166.845703 0)"/>
      </g>
     </g>
    </g>
    <g id="text_19">
     <!-- Count -->
     <g style="fill: #262626" transform="translate(21.549375 187.152188) rotate(-90) scale(0.12 -0.12)">
      <defs>
       <path id="ArialMT-43" d="M 3763 1606 
L 4369 1453 
Q 4178 706 3683 314 
Q 3188 -78 2472 -78 
Q 1731 -78 1267 223 
Q 803 525 561 1097 
Q 319 1669 319 2325 
Q 319 3041 592 3573 
Q 866 4106 1370 4382 
Q 1875 4659 2481 4659 
Q 3169 4659 3637 4309 
Q 4106 3959 4291 3325 
L 3694 3184 
Q 3534 3684 3231 3912 
Q 2928 4141 2469 4141 
Q 1941 4141 1586 3887 
Q 1231 3634 1087 3207 
Q 944 2781 944 2328 
Q 944 1744 1114 1308 
Q 1284 872 1643 656 
Q 2003 441 2422 441 
Q 2931 441 3284 734 
Q 3638 1028 3763 1606 
z
" transform="scale(0.015625)"/>
       <path id="ArialMT-6f" d="M 213 1659 
Q 213 2581 725 3025 
Q 1153 3394 1769 3394 
Q 2453 3394 2887 2945 
Q 3322 2497 3322 1706 
Q 3322 1066 3130 698 
Q 2938 331 2570 128 
Q 2203 -75 1769 -75 
Q 1072 -75 642 372 
Q 213 819 213 1659 
z
M 791 1659 
Q 791 1022 1069 705 
Q 1347 388 1769 388 
Q 2188 388 2466 706 
Q 2744 1025 2744 1678 
Q 2744 2294 2464 2611 
Q 2184 2928 1769 2928 
Q 1347 2928 1069 2612 
Q 791 2297 791 1659 
z
" transform="scale(0.015625)"/>
      </defs>
      <use xlink:href="#ArialMT-43"/>
      <use xlink:href="#ArialMT-6f" transform="translate(72.216797 0)"/>
      <use xlink:href="#ArialMT-75" transform="translate(127.832031 0)"/>
      <use xlink:href="#ArialMT-6e" transform="translate(183.447266 0)"/>
      <use xlink:href="#ArialMT-74" transform="translate(239.0625 0)"/>
     </g>
    </g>
   </g>
   <g id="patch_3">
    <path d="M 82.55821 313.133438 
L 91.710244 313.133438 
L 91.710244 251.883858 
L 82.55821 251.883858 
z
" clip-path="url(#pda61b2f42a)" style="fill: #4c78a8; fill-opacity: 0.5; stroke: #ffffff; stroke-width: 0.811636; stroke-linejoin: miter"/>
   </g>
   <g id="patch_4">
    <path d="M 91.710244 313.133438 
L 100.862278 313.133438 
L 100.862278 244.952533 
L 91.710244 244.952533 
z
" clip-path="url(#pda61b2f42a)" style="fill: #4c78a8; fill-opacity: 0.5; stroke: #ffffff; stroke-width: 0.811636; stroke-linejoin: miter"/>
   </g>
   <g id="patch_5">
    <path d="M 100.862278 313.133438 
L 110.014312 313.133438 
L 110.014312 189.124484 
L 100.862278 189.124484 
z
" clip-path="url(#pda61b2f42a)" style="fill: #4c78a8; fill-opacity: 0.5; stroke: #ffffff; stroke-width: 0.811636; stroke-linejoin: miter"/>
   </g>
   <g id="patch_6">
    <path d="M 110.014312 313.133438 
L 119.166347 313.133438 
L 119.166347 140.879717 
L 110.014312 140.879717 
z
" clip-path="url(#pda61b2f42a)" style="fill: #4c78a8; fill-opacity: 0.5; stroke: #ffffff; stroke-width: 0.811636; stroke-linejoin: miter"/>
   </g>
   <g id="patch_7">
    <path d="M 119.166347 313.133438 
L 128.318381 313.133438 
L 128.318381 116.860274 
L 119.166347 116.860274 
z
" clip-path="url(#pda61b2f42a)" style="fill: #4c78a8; fill-opacity: 0.5; stroke: #ffffff; stroke-width: 0.811636; stroke-linejoin: miter"/>
   </g>
   <g id="patch_8">
    <path d="M 128.318381 313.133438 
L 137.470415 313.133438 
L 137.470415 77.537015 
L 128.318381 77.537015 
z
" clip-path="url(#pda61b2f42a)" style="fill: #4c78a8; fill-opacity: 0.5; stroke: #ffffff; stroke-width: 0.811636; stroke-linejoin: miter"/>
   </g>
   <g id="patch_9">
    <path d="M 137.470415 313.133438 
L 146.622449 313.133438 
L 146.622449 62.130258 
L 137.470415 62.130258 
z
" clip-path="url(#pda61b2f42a)" style="fill: #4c78a8; fill-opacity: 0.5; stroke: #ffffff; stroke-width: 0.811636; stroke-linejoin: miter"/>
   </g>
   <g id="patch_10">
    <path d="M 146.622449 313.133438 
L 155.774483 313.133438 
L 155.774483 51.767584 
L 146.622449 51.767584 
z
" clip-path="url(#pda61b2f42a)" style="fill: #4c78a8; fill-opacity: 0.5; stroke: #ffffff; stroke-width: 0.811636; stroke-linejoin: miter"/>
   </g>
   <g id="patch_11">
    <path d="M 155.774483 313.133438 
L 164.926517 313.133438 
L 164.926517 52.385227 
L 155.774483 52.385227 
z
" clip-path="url(#pda61b2f42a)" style="fill: #4c78a8; fill-opacity: 0.5; stroke: #ffffff; stroke-width: 0.811636; stroke-linejoin: miter"/>
   </g>
   <g id="patch_12">
    <path d="M 164.926517 313.133438 
L 174.078551 313.133438 
L 174.078551 67.620416 
L 164.926517 67.620416 
z
" clip-path="url(#pda61b2f42a)" style="fill: #4c78a8; fill-opacity: 0.5; stroke: #ffffff; stroke-width: 0.811636; stroke-linejoin: miter"/>
   </g>
   <g id="patch_13">
    <path d="M 174.078551 313.133438 
L 183.230585 313.133438 
L 183.230585 42.674509 
L 174.078551 42.674509 
z
" clip-path="url(#pda61b2f42a)" style="fill: #4c78a8; fill-opacity: 0.5; stroke: #ffffff; stroke-width: 0.811636; stroke-linejoin: miter"/>
   </g>
   <g id="patch_14">
    <path d="M 183.230585 313.133438 
L 192.382619 313.133438 
L 192.382619 53.757766 
L 183.230585 53.757766 
z
" clip-path="url(#pda61b2f42a)" style="fill: #4c78a8; fill-opacity: 0.5; stroke: #ffffff; stroke-width: 0.811636; stroke-linejoin: miter"/>
   </g>
   <g id="patch_15">
    <path d="M 192.382619 313.133438 
L 201.534653 313.133438 
L 201.534653 69.885107 
L 192.382619 69.885107 
z
" clip-path="url(#pda61b2f42a)" style="fill: #4c78a8; fill-opacity: 0.5; stroke: #ffffff; stroke-width: 0.811636; stroke-linejoin: miter"/>
   </g>
   <g id="patch_16">
    <path d="M 201.534653 313.133438 
L 210.686688 313.133438 
L 210.686688 78.154658 
L 201.534653 78.154658 
z
" clip-path="url(#pda61b2f42a)" style="fill: #4c78a8; fill-opacity: 0.5; stroke: #ffffff; stroke-width: 0.811636; stroke-linejoin: miter"/>
   </g>
   <g id="patch_17">
    <path d="M 210.686688 313.133438 
L 219.838722 313.133438 
L 219.838722 102.894684 
L 210.686688 102.894684 
z
" clip-path="url(#pda61b2f42a)" style="fill: #4c78a8; fill-opacity: 0.5; stroke: #ffffff; stroke-width: 0.811636; stroke-linejoin: miter"/>
   </g>
   <g id="patch_18">
    <path d="M 219.838722 313.133438 
L 228.990756 313.133438 
L 228.990756 97.438839 
L 219.838722 97.438839 
z
" clip-path="url(#pda61b2f42a)" style="fill: #4c78a8; fill-opacity: 0.5; stroke: #ffffff; stroke-width: 0.811636; stroke-linejoin: miter"/>
   </g>
   <g id="patch_19">
    <path d="M 228.990756 313.133438 
L 238.14279 313.133438 
L 238.14279 104.23291 
L 228.990756 104.23291 
z
" clip-path="url(#pda61b2f42a)" style="fill: #4c78a8; fill-opacity: 0.5; stroke: #ffffff; stroke-width: 0.811636; stroke-linejoin: miter"/>
   </g>
   <g id="patch_20">
    <path d="M 238.14279 313.133438 
L 247.294824 313.133438 
L 247.294824 115.556362 
L 238.14279 115.556362 
z
" clip-path="url(#pda61b2f42a)" style="fill: #4c78a8; fill-opacity: 0.5; stroke: #ffffff; stroke-width: 0.811636; stroke-linejoin: miter"/>
   </g>
   <g id="patch_21">
    <path d="M 247.294824 313.133438 
L 256.446858 313.133438 
L 256.446858 125.404333 
L 247.294824 125.404333 
z
" clip-path="url(#pda61b2f42a)" style="fill: #4c78a8; fill-opacity: 0.5; stroke: #ffffff; stroke-width: 0.811636; stroke-linejoin: miter"/>
   </g>
   <g id="patch_22">
    <path d="M 256.446858 313.133438 
L 265.598892 313.133438 
L 265.598892 151.654153 
L 256.446858 151.654153 
z
" clip-path="url(#pda61b2f42a)" style="fill: #4c78a8; fill-opacity: 0.5; stroke: #ffffff; stroke-width: 0.811636; stroke-linejoin: miter"/>
   </g>
   <g id="patch_23">
    <path d="M 265.598892 313.133438 
L 274.750926 313.133438 
L 274.750926 146.747324 
L 265.598892 146.747324 
z
" clip-path="url(#pda61b2f42a)" style="fill: #4c78a8; fill-opacity: 0.5; stroke: #ffffff; stroke-width: 0.811636; stroke-linejoin: miter"/>
   </g>
   <g id="patch_24">
    <path d="M 274.750926 313.133438 
L 283.90296 313.133438 
L 283.90296 157.693328 
L 274.750926 157.693328 
z
" clip-path="url(#pda61b2f42a)" style="fill: #4c78a8; fill-opacity: 0.5; stroke: #ffffff; stroke-width: 0.811636; stroke-linejoin: miter"/>
   </g>
   <g id="patch_25">
    <path d="M 283.90296 313.133438 
L 293.054994 313.133438 
L 293.054994 161.810946 
L 283.90296 161.810946 
z
" clip-path="url(#pda61b2f42a)" style="fill: #4c78a8; fill-opacity: 0.5; stroke: #ffffff; stroke-width: 0.811636; stroke-linejoin: miter"/>
   </g>
   <g id="patch_26">
    <path d="M 293.054994 313.133438 
L 302.207028 313.133438 
L 302.207028 171.006962 
L 293.054994 171.006962 
z
" clip-path="url(#pda61b2f42a)" style="fill: #4c78a8; fill-opacity: 0.5; stroke: #ffffff; stroke-width: 0.811636; stroke-linejoin: miter"/>
   </g>
   <g id="patch_27">
    <path d="M 302.207028 313.133438 
L 311.359062 313.133438 
L 311.359062 185.350001 
L 302.207028 185.350001 
z
" clip-path="url(#pda61b2f42a)" style="fill: #4c78a8; fill-opacity: 0.5; stroke: #ffffff; stroke-width: 0.811636; stroke-linejoin: miter"/>
   </g>
   <g id="patch_28">
    <path d="M 311.359062 313.133438 
L 320.511097 313.133438 
L 320.511097 185.487255 
L 311.359062 185.487255 
z
" clip-path="url(#pda61b2f42a)" style="fill: #4c78a8; fill-opacity: 0.5; stroke: #ffffff; stroke-width: 0.811636; stroke-linejoin: miter"/>
   </g>
   <g id="patch_29">
    <path d="M 320.511097 313.133438 
L 329.663131 313.133438 
L 329.663131 192.315639 
L 320.511097 192.315639 
z
" clip-path="url(#pda61b2f42a)" style="fill: #4c78a8; fill-opacity: 0.5; stroke: #ffffff; stroke-width: 0.811636; stroke-linejoin: miter"/>
   </g>
   <g id="patch_30">
    <path d="M 329.663131 313.133438 
L 338.815165 313.133438 
L 338.815165 204.599868 
L 329.663131 204.599868 
z
" clip-path="url(#pda61b2f42a)" style="fill: #4c78a8; fill-opacity: 0.5; stroke: #ffffff; stroke-width: 0.811636; stroke-linejoin: miter"/>
   </g>
   <g id="patch_31">
    <path d="M 338.815165 313.133438 
L 347.967199 313.133438 
L 347.967199 211.085118 
L 338.815165 211.085118 
z
" clip-path="url(#pda61b2f42a)" style="fill: #4c78a8; fill-opacity: 0.5; stroke: #ffffff; stroke-width: 0.811636; stroke-linejoin: miter"/>
   </g>
   <g id="patch_32">
    <path d="M 347.967199 313.133438 
L 357.119233 313.133438 
L 357.119233 224.227185 
L 347.967199 224.227185 
z
" clip-path="url(#pda61b2f42a)" style="fill: #4c78a8; fill-opacity: 0.5; stroke: #ffffff; stroke-width: 0.811636; stroke-linejoin: miter"/>
   </g>
   <g id="patch_33">
    <path d="M 357.119233 313.133438 
L 366.271267 313.133438 
L 366.271267 220.418387 
L 357.119233 220.418387 
z
" clip-path="url(#pda61b2f42a)" style="fill: #4c78a8; fill-opacity: 0.5; stroke: #ffffff; stroke-width: 0.811636; stroke-linejoin: miter"/>
   </g>
   <g id="patch_34">
    <path d="M 366.271267 313.133438 
L 375.423301 313.133438 
L 375.423301 230.540867 
L 366.271267 230.540867 
z
" clip-path="url(#pda61b2f42a)" style="fill: #4c78a8; fill-opacity: 0.5; stroke: #ffffff; stroke-width: 0.811636; stroke-linejoin: miter"/>
   </g>
   <g id="patch_35">
    <path d="M 375.423301 313.133438 
L 384.575335 313.133438 
L 384.575335 235.379069 
L 375.423301 235.379069 
z
" clip-path="url(#pda61b2f42a)" style="fill: #4c78a8; fill-opacity: 0.5; stroke: #ffffff; stroke-width: 0.811636; stroke-linejoin: miter"/>
   </g>
   <g id="patch_36">
    <path d="M 384.575335 313.133438 
L 393.727369 313.133438 
L 393.727369 239.187866 
L 384.575335 239.187866 
z
" clip-path="url(#pda61b2f42a)" style="fill: #4c78a8; fill-opacity: 0.5; stroke: #ffffff; stroke-width: 0.811636; stroke-linejoin: miter"/>
   </g>
   <g id="patch_37">
    <path d="M 393.727369 313.133438 
L 402.879403 313.133438 
L 402.879403 249.962302 
L 393.727369 249.962302 
z
" clip-path="url(#pda61b2f42a)" style="fill: #4c78a8; fill-opacity: 0.5; stroke: #ffffff; stroke-width: 0.811636; stroke-linejoin: miter"/>
   </g>
   <g id="patch_38">
    <path d="M 402.879403 313.133438 
L 412.031437 313.133438 
L 412.031437 249.722108 
L 402.879403 249.722108 
z
" clip-path="url(#pda61b2f42a)" style="fill: #4c78a8; fill-opacity: 0.5; stroke: #ffffff; stroke-width: 0.811636; stroke-linejoin: miter"/>
   </g>
   <g id="patch_39">
    <path d="M 412.031438 313.133438 
L 421.183472 313.133438 
L 421.183472 252.055425 
L 412.031438 252.055425 
z
" clip-path="url(#pda61b2f42a)" style="fill: #4c78a8; fill-opacity: 0.5; stroke: #ffffff; stroke-width: 0.811636; stroke-linejoin: miter"/>
   </g>
   <g id="patch_40">
    <path d="M 421.183472 313.133438 
L 430.335506 313.133438 
L 430.335506 258.712242 
L 421.183472 258.712242 
z
" clip-path="url(#pda61b2f42a)" style="fill: #4c78a8; fill-opacity: 0.5; stroke: #ffffff; stroke-width: 0.811636; stroke-linejoin: miter"/>
   </g>
   <g id="patch_41">
    <path d="M 430.335506 313.133438 
L 439.48754 313.133438 
L 439.48754 262.829861 
L 430.335506 262.829861 
z
" clip-path="url(#pda61b2f42a)" style="fill: #4c78a8; fill-opacity: 0.5; stroke: #ffffff; stroke-width: 0.811636; stroke-linejoin: miter"/>
   </g>
   <g id="patch_42">
    <path d="M 439.48754 313.133438 
L 448.639574 313.133438 
L 448.639574 271.991563 
L 439.48754 271.991563 
z
" clip-path="url(#pda61b2f42a)" style="fill: #4c78a8; fill-opacity: 0.5; stroke: #ffffff; stroke-width: 0.811636; stroke-linejoin: miter"/>
   </g>
   <g id="patch_43">
    <path d="M 448.639574 313.133438 
L 457.791608 313.133438 
L 457.791608 273.775864 
L 448.639574 273.775864 
z
" clip-path="url(#pda61b2f42a)" style="fill: #4c78a8; fill-opacity: 0.5; stroke: #ffffff; stroke-width: 0.811636; stroke-linejoin: miter"/>
   </g>
   <g id="patch_44">
    <path d="M 457.791608 313.133438 
L 466.943642 313.133438 
L 466.943642 274.565075 
L 457.791608 274.565075 
z
" clip-path="url(#pda61b2f42a)" style="fill: #4c78a8; fill-opacity: 0.5; stroke: #ffffff; stroke-width: 0.811636; stroke-linejoin: miter"/>
   </g>
   <g id="patch_45">
    <path d="M 466.943642 313.133438 
L 476.095676 313.133438 
L 476.095676 281.4964 
L 466.943642 281.4964 
z
" clip-path="url(#pda61b2f42a)" style="fill: #4c78a8; fill-opacity: 0.5; stroke: #ffffff; stroke-width: 0.811636; stroke-linejoin: miter"/>
   </g>
   <g id="patch_46">
    <path d="M 476.095676 313.133438 
L 485.24771 313.133438 
L 485.24771 282.182669 
L 476.095676 282.182669 
z
" clip-path="url(#pda61b2f42a)" style="fill: #4c78a8; fill-opacity: 0.5; stroke: #ffffff; stroke-width: 0.811636; stroke-linejoin: miter"/>
   </g>
   <g id="patch_47">
    <path d="M 485.24771 313.133438 
L 494.399744 313.133438 
L 494.399744 288.667919 
L 485.24771 288.667919 
z
" clip-path="url(#pda61b2f42a)" style="fill: #4c78a8; fill-opacity: 0.5; stroke: #ffffff; stroke-width: 0.811636; stroke-linejoin: miter"/>
   </g>
   <g id="patch_48">
    <path d="M 494.399744 313.133438 
L 503.551778 313.133438 
L 503.551778 291.001236 
L 494.399744 291.001236 
z
" clip-path="url(#pda61b2f42a)" style="fill: #4c78a8; fill-opacity: 0.5; stroke: #ffffff; stroke-width: 0.811636; stroke-linejoin: miter"/>
   </g>
   <g id="patch_49">
    <path d="M 503.551778 313.133438 
L 512.703813 313.133438 
L 512.703813 293.060046 
L 503.551778 293.060046 
z
" clip-path="url(#pda61b2f42a)" style="fill: #4c78a8; fill-opacity: 0.5; stroke: #ffffff; stroke-width: 0.811636; stroke-linejoin: miter"/>
   </g>
   <g id="patch_50">
    <path d="M 512.703812 313.133438 
L 521.855847 313.133438 
L 521.855847 293.540435 
L 512.703812 293.540435 
z
" clip-path="url(#pda61b2f42a)" style="fill: #4c78a8; fill-opacity: 0.5; stroke: #ffffff; stroke-width: 0.811636; stroke-linejoin: miter"/>
   </g>
   <g id="patch_51">
    <path d="M 521.855847 313.133438 
L 531.007881 313.133438 
L 531.007881 297.589427 
L 521.855847 297.589427 
z
" clip-path="url(#pda61b2f42a)" style="fill: #4c78a8; fill-opacity: 0.5; stroke: #ffffff; stroke-width: 0.811636; stroke-linejoin: miter"/>
   </g>
   <g id="patch_52">
    <path d="M 531.007881 313.133438 
L 540.159915 313.133438 
L 540.159915 297.006097 
L 531.007881 297.006097 
z
" clip-path="url(#pda61b2f42a)" style="fill: #4c78a8; fill-opacity: 0.5; stroke: #ffffff; stroke-width: 0.811636; stroke-linejoin: miter"/>
   </g>
   <g id="line2d_18">
    <path d="M 82.55821 279.689072 
L 87.157222 266.213467 
L 89.456728 259.128695 
L 91.756234 251.618897 
L 94.05574 243.483796 
L 96.355247 234.568936 
L 98.654753 224.821679 
L 100.954259 214.310109 
L 105.553271 191.73883 
L 112.451789 157.513737 
L 114.751295 146.770294 
L 117.050801 136.558941 
L 119.350307 126.953698 
L 121.649813 118.011494 
L 123.949319 109.775599 
L 126.248825 102.273422 
L 128.548331 95.511363 
L 130.847837 89.470723 
L 133.147343 84.108163 
L 135.446849 79.362214 
L 137.746355 75.164574 
L 140.045862 71.452649 
L 142.345368 68.178932 
L 144.644874 65.313832 
L 146.94438 62.841022 
L 149.243886 60.747242 
L 151.543392 59.010588 
L 153.842898 57.591893 
L 156.142404 56.43281 
L 160.741416 54.608766 
L 165.340428 53.073493 
L 167.639934 52.392949 
L 169.93944 51.841128 
L 172.238946 51.510913 
L 174.538452 51.504302 
L 176.837958 51.909173 
L 179.137464 52.779844 
L 181.436971 54.126578 
L 183.736477 55.915742 
L 186.035983 58.078709 
L 188.335489 60.525483 
L 192.934501 65.887879 
L 199.833019 73.991359 
L 204.432031 79.057434 
L 211.330549 86.292135 
L 220.528573 95.607598 
L 232.026104 107.11337 
L 236.625116 112.047078 
L 245.82314 122.400296 
L 264.219188 143.08236 
L 268.818201 148.037734 
L 273.417213 152.71039 
L 278.016225 156.950697 
L 282.615237 160.736836 
L 289.513755 165.937957 
L 298.711779 172.910834 
L 305.610297 178.39579 
L 310.209309 182.263976 
L 317.107828 188.414865 
L 328.605358 198.991591 
L 335.503876 205.417086 
L 340.102888 209.411105 
L 344.7019 212.962965 
L 349.300912 216.053265 
L 356.199431 220.150477 
L 360.798443 222.968987 
L 365.397455 226.157725 
L 374.595479 232.909614 
L 379.194491 235.749079 
L 383.793503 238.169941 
L 392.991527 242.85734 
L 402.189552 247.729121 
L 406.788564 249.908501 
L 420.5856 256.027015 
L 425.184612 258.37363 
L 432.08313 262.194475 
L 443.580661 268.693789 
L 448.179673 271.007579 
L 452.778685 273.031255 
L 471.174733 280.383581 
L 478.073251 282.863572 
L 484.97177 285.29113 
L 496.4693 289.537362 
L 501.068312 290.987317 
L 505.667324 292.240536 
L 512.565842 293.87659 
L 521.763866 296.049388 
L 526.362878 297.386017 
L 528.662385 298.209452 
L 530.961891 299.188553 
L 533.261397 300.354445 
L 535.560903 301.714824 
L 540.159915 304.873677 
L 540.159915 304.873677 
" clip-path="url(#pda61b2f42a)" style="fill: none; stroke: #4c78a8; stroke-width: 1.5; stroke-linecap: round"/>
   </g>
   <g id="line2d_19">
    <path d="M 241.461522 313.133438 
L 241.461522 29.151563 
" clip-path="url(#pda61b2f42a)" style="fill: none; stroke-dasharray: 5.55,2.4; stroke-dashoffset: 0; stroke: #ffa500; stroke-width: 1.5"/>
   </g>
   <g id="line2d_20">
    <path d="M 221.165103 313.133438 
L 221.165103 29.151563 
" clip-path="url(#pda61b2f42a)" style="fill: none; stroke-dasharray: 1.5,2.475; stroke-dashoffset: 0; stroke: #008000; stroke-width: 1.5"/>
   </g>
   <g id="patch_53">
    <path d="M 59.678125 313.133438 
L 59.678125 29.151563 
" style="fill: none; stroke: #cccccc; stroke-width: 1.25; stroke-linejoin: miter; stroke-linecap: square"/>
   </g>
   <g id="patch_54">
    <path d="M 563.04 313.133438 
L 563.04 29.151563 
" style="fill: none; stroke: #cccccc; stroke-width: 1.25; stroke-linejoin: miter; stroke-linecap: square"/>
   </g>
   <g id="patch_55">
    <path d="M 59.678125 313.133438 
L 563.04 313.133438 
" style="fill: none; stroke: #cccccc; stroke-width: 1.25; stroke-linejoin: miter; stroke-linecap: square"/>
   </g>
   <g id="patch_56">
    <path d="M 59.678125 29.151563 
L 563.04 29.151563 
" style="fill: none; stroke: #cccccc; stroke-width: 1.25; stroke-linejoin: miter; stroke-linecap: square"/>
   </g>
   <g id="text_20">
    <!-- ATA Distribution (skew=0.74, N=182898) -->
    <g style="fill: #262626" transform="translate(185.551562 23.151563) scale(0.14 -0.14)">
     <defs>
      <path id="ArialMT-44" d="M 494 0 
L 494 4581 
L 2072 4581 
Q 2606 4581 2888 4516 
Q 3281 4425 3559 4188 
Q 3922 3881 4101 3404 
Q 4281 2928 4281 2316 
Q 4281 1794 4159 1391 
Q 4038 988 3847 723 
Q 3656 459 3429 307 
Q 3203 156 2883 78 
Q 2563 0 2147 0 
L 494 0 
z
M 1100 541 
L 2078 541 
Q 2531 541 2789 625 
Q 3047 709 3200 863 
Q 3416 1078 3536 1442 
Q 3656 1806 3656 2325 
Q 3656 3044 3420 3430 
Q 3184 3816 2847 3947 
Q 2603 4041 2063 4041 
L 1100 4041 
L 1100 541 
z
" transform="scale(0.015625)"/>
      <path id="ArialMT-72" d="M 416 0 
L 416 3319 
L 922 3319 
L 922 2816 
Q 1116 3169 1280 3281 
Q 1444 3394 1641 3394 
Q 1925 3394 2219 3213 
L 2025 2691 
Q 1819 2813 1613 2813 
Q 1428 2813 1281 2702 
Q 1134 2591 1072 2394 
Q 978 2094 978 1738 
L 978 0 
L 416 0 
z
" transform="scale(0.015625)"/>
      <path id="ArialMT-62" d="M 941 0 
L 419 0 
L 419 4581 
L 981 4581 
L 981 2947 
Q 1338 3394 1891 3394 
Q 2197 3394 2470 3270 
Q 2744 3147 2920 2923 
Q 3097 2700 3197 2384 
Q 3297 2069 3297 1709 
Q 3297 856 2875 390 
Q 2453 -75 1863 -75 
Q 1275 -75 941 416 
L 941 0 
z
M 934 1684 
Q 934 1088 1097 822 
Q 1363 388 1816 388 
Q 2184 388 2453 708 
Q 2722 1028 2722 1663 
Q 2722 2313 2464 2622 
Q 2206 2931 1841 2931 
Q 1472 2931 1203 2611 
Q 934 2291 934 1684 
z
" transform="scale(0.015625)"/>
      <path id="ArialMT-6b" d="M 425 0 
L 425 4581 
L 988 4581 
L 988 1969 
L 2319 3319 
L 3047 3319 
L 1778 2088 
L 3175 0 
L 2481 0 
L 1384 1697 
L 988 1316 
L 988 0 
L 425 0 
z
" transform="scale(0.015625)"/>
      <path id="ArialMT-77" d="M 1034 0 
L 19 3319 
L 600 3319 
L 1128 1403 
L 1325 691 
Q 1338 744 1497 1375 
L 2025 3319 
L 2603 3319 
L 3100 1394 
L 3266 759 
L 3456 1400 
L 4025 3319 
L 4572 3319 
L 3534 0 
L 2950 0 
L 2422 1988 
L 2294 2553 
L 1622 0 
L 1034 0 
z
" transform="scale(0.015625)"/>
      <path id="ArialMT-3d" d="M 3381 2694 
L 356 2694 
L 356 3219 
L 3381 3219 
L 3381 2694 
z
M 3381 1303 
L 356 1303 
L 356 1828 
L 3381 1828 
L 3381 1303 
z
" transform="scale(0.015625)"/>
      <path id="ArialMT-2e" d="M 581 0 
L 581 641 
L 1222 641 
L 1222 0 
L 581 0 
z
" transform="scale(0.015625)"/>
      <path id="ArialMT-2c" d="M 569 0 
L 569 641 
L 1209 641 
L 1209 0 
Q 1209 -353 1084 -570 
Q 959 -788 688 -906 
L 531 -666 
Q 709 -588 793 -436 
Q 878 -284 888 0 
L 569 0 
z
" transform="scale(0.015625)"/>
      <path id="ArialMT-4e" d="M 488 0 
L 488 4581 
L 1109 4581 
L 3516 984 
L 3516 4581 
L 4097 4581 
L 4097 0 
L 3475 0 
L 1069 3600 
L 1069 0 
L 488 0 
z
" transform="scale(0.015625)"/>
      <path id="ArialMT-39" d="M 350 1059 
L 891 1109 
Q 959 728 1153 556 
Q 1347 384 1650 384 
Q 1909 384 2104 503 
Q 2300 622 2425 820 
Q 2550 1019 2634 1356 
Q 2719 1694 2719 2044 
Q 2719 2081 2716 2156 
Q 2547 1888 2255 1720 
Q 1963 1553 1622 1553 
Q 1053 1553 659 1965 
Q 266 2378 266 3053 
Q 266 3750 677 4175 
Q 1088 4600 1706 4600 
Q 2153 4600 2523 4359 
Q 2894 4119 3086 3673 
Q 3278 3228 3278 2384 
Q 3278 1506 3087 986 
Q 2897 466 2520 194 
Q 2144 -78 1638 -78 
Q 1100 -78 759 220 
Q 419 519 350 1059 
z
M 2653 3081 
Q 2653 3566 2395 3850 
Q 2138 4134 1775 4134 
Q 1400 4134 1122 3828 
Q 844 3522 844 3034 
Q 844 2597 1108 2323 
Q 1372 2050 1759 2050 
Q 2150 2050 2401 2323 
Q 2653 2597 2653 3081 
z
" transform="scale(0.015625)"/>
     </defs>
     <use xlink:href="#ArialMT-41"/>
     <use xlink:href="#ArialMT-54" transform="translate(59.324219 0)"/>
     <use xlink:href="#ArialMT-41" transform="translate(113.033203 0)"/>
     <use xlink:href="#ArialMT-20" transform="translate(174.232422 0)"/>
     <use xlink:href="#ArialMT-44" transform="translate(202.015625 0)"/>
     <use xlink:href="#ArialMT-69" transform="translate(274.232422 0)"/>
     <use xlink:href="#ArialMT-73" transform="translate(296.449219 0)"/>
     <use xlink:href="#ArialMT-74" transform="translate(346.449219 0)"/>
     <use xlink:href="#ArialMT-72" transform="translate(374.232422 0)"/>
     <use xlink:href="#ArialMT-69" transform="translate(407.533203 0)"/>
     <use xlink:href="#ArialMT-62" transform="translate(429.75 0)"/>
     <use xlink:href="#ArialMT-75" transform="translate(485.365234 0)"/>
     <use xlink:href="#ArialMT-74" transform="translate(540.980469 0)"/>
     <use xlink:href="#ArialMT-69" transform="translate(568.763672 0)"/>
     <use xlink:href="#ArialMT-6f" transform="translate(590.980469 0)"/>
     <use xlink:href="#ArialMT-6e" transform="translate(646.595703 0)"/>
     <use xlink:href="#ArialMT-20" transform="translate(702.210938 0)"/>
     <use xlink:href="#ArialMT-28" transform="translate(729.994141 0)"/>
     <use xlink:href="#ArialMT-73" transform="translate(763.294922 0)"/>
     <use xlink:href="#ArialMT-6b" transform="translate(813.294922 0)"/>
     <use xlink:href="#ArialMT-65" transform="translate(863.294922 0)"/>
     <use xlink:href="#ArialMT-77" transform="translate(918.910156 0)"/>
     <use xlink:href="#ArialMT-3d" transform="translate(991.126953 0)"/>
     <use xlink:href="#ArialMT-30" transform="translate(1049.525391 0)"/>
     <use xlink:href="#ArialMT-2e" transform="translate(1105.140625 0)"/>
     <use xlink:href="#ArialMT-37" transform="translate(1132.923828 0)"/>
     <use xlink:href="#ArialMT-34" transform="translate(1188.539062 0)"/>
     <use xlink:href="#ArialMT-2c" transform="translate(1244.154297 0)"/>
     <use xlink:href="#ArialMT-20" transform="translate(1271.9375 0)"/>
     <use xlink:href="#ArialMT-4e" transform="translate(1299.720703 0)"/>
     <use xlink:href="#ArialMT-3d" transform="translate(1371.9375 0)"/>
     <use xlink:href="#ArialMT-31" transform="translate(1430.335938 0)"/>
     <use xlink:href="#ArialMT-38" transform="translate(1485.951172 0)"/>
     <use xlink:href="#ArialMT-32" transform="translate(1541.566406 0)"/>
     <use xlink:href="#ArialMT-38" transform="translate(1597.181641 0)"/>
     <use xlink:href="#ArialMT-39" transform="translate(1652.796875 0)"/>
     <use xlink:href="#ArialMT-38" transform="translate(1708.412109 0)"/>
     <use xlink:href="#ArialMT-29" transform="translate(1764.027344 0)"/>
    </g>
   </g>
   <g id="legend_1">
    <g id="patch_57">
     <path d="M 454.82125 65.442188 
L 556.04 65.442188 
Q 558.04 65.442188 558.04 63.442188 
L 558.04 36.151563 
Q 558.04 34.151563 556.04 34.151563 
L 454.82125 34.151563 
Q 452.82125 34.151563 452.82125 36.151563 
L 452.82125 63.442188 
Q 452.82125 65.442188 454.82125 65.442188 
z
" style="fill: #ffffff; opacity: 0.8; stroke: #cccccc; stroke-linejoin: miter"/>
    </g>
    <g id="line2d_21">
     <path d="M 456.82125 41.809375 
L 466.82125 41.809375 
L 476.82125 41.809375 
" style="fill: none; stroke-dasharray: 5.55,2.4; stroke-dashoffset: 0; stroke: #ffa500; stroke-width: 1.5"/>
    </g>
    <g id="text_21">
     <!-- Mean=240.60 -->
     <g style="fill: #262626" transform="translate(484.82125 45.309375) scale(0.1 -0.1)">
      <defs>
       <path id="ArialMT-4d" d="M 475 0 
L 475 4581 
L 1388 4581 
L 2472 1338 
Q 2622 884 2691 659 
Q 2769 909 2934 1394 
L 4031 4581 
L 4847 4581 
L 4847 0 
L 4263 0 
L 4263 3834 
L 2931 0 
L 2384 0 
L 1059 3900 
L 1059 0 
L 475 0 
z
" transform="scale(0.015625)"/>
       <path id="ArialMT-61" d="M 2588 409 
Q 2275 144 1986 34 
Q 1697 -75 1366 -75 
Q 819 -75 525 192 
Q 231 459 231 875 
Q 231 1119 342 1320 
Q 453 1522 633 1644 
Q 813 1766 1038 1828 
Q 1203 1872 1538 1913 
Q 2219 1994 2541 2106 
Q 2544 2222 2544 2253 
Q 2544 2597 2384 2738 
Q 2169 2928 1744 2928 
Q 1347 2928 1158 2789 
Q 969 2650 878 2297 
L 328 2372 
Q 403 2725 575 2942 
Q 747 3159 1072 3276 
Q 1397 3394 1825 3394 
Q 2250 3394 2515 3294 
Q 2781 3194 2906 3042 
Q 3031 2891 3081 2659 
Q 3109 2516 3109 2141 
L 3109 1391 
Q 3109 606 3145 398 
Q 3181 191 3288 0 
L 2700 0 
Q 2613 175 2588 409 
z
M 2541 1666 
Q 2234 1541 1622 1453 
Q 1275 1403 1131 1340 
Q 988 1278 909 1158 
Q 831 1038 831 891 
Q 831 666 1001 516 
Q 1172 366 1500 366 
Q 1825 366 2078 508 
Q 2331 650 2450 897 
Q 2541 1088 2541 1459 
L 2541 1666 
z
" transform="scale(0.015625)"/>
      </defs>
      <use xlink:href="#ArialMT-4d"/>
      <use xlink:href="#ArialMT-65" transform="translate(83.300781 0)"/>
      <use xlink:href="#ArialMT-61" transform="translate(138.916016 0)"/>
      <use xlink:href="#ArialMT-6e" transform="translate(194.53125 0)"/>
      <use xlink:href="#ArialMT-3d" transform="translate(250.146484 0)"/>
      <use xlink:href="#ArialMT-32" transform="translate(308.544922 0)"/>
      <use xlink:href="#ArialMT-34" transform="translate(364.160156 0)"/>
      <use xlink:href="#ArialMT-30" transform="translate(419.775391 0)"/>
      <use xlink:href="#ArialMT-2e" transform="translate(475.390625 0)"/>
      <use xlink:href="#ArialMT-36" transform="translate(503.173828 0)"/>
      <use xlink:href="#ArialMT-30" transform="translate(558.789062 0)"/>
     </g>
    </g>
    <g id="line2d_22">
     <path d="M 456.82125 55.954688 
L 466.82125 55.954688 
L 476.82125 55.954688 
" style="fill: none; stroke-dasharray: 1.5,2.475; stroke-dashoffset: 0; stroke: #008000; stroke-width: 1.5"/>
    </g>
    <g id="text_22">
     <!-- Median=210.00 -->
     <g style="fill: #262626" transform="translate(484.82125 59.454688) scale(0.1 -0.1)">
      <defs>
       <path id="ArialMT-64" d="M 2575 0 
L 2575 419 
Q 2259 -75 1647 -75 
Q 1250 -75 917 144 
Q 584 363 401 755 
Q 219 1147 219 1656 
Q 219 2153 384 2558 
Q 550 2963 881 3178 
Q 1213 3394 1622 3394 
Q 1922 3394 2156 3267 
Q 2391 3141 2538 2938 
L 2538 4581 
L 3097 4581 
L 3097 0 
L 2575 0 
z
M 797 1656 
Q 797 1019 1065 703 
Q 1334 388 1700 388 
Q 2069 388 2326 689 
Q 2584 991 2584 1609 
Q 2584 2291 2321 2609 
Q 2059 2928 1675 2928 
Q 1300 2928 1048 2622 
Q 797 2316 797 1656 
z
" transform="scale(0.015625)"/>
      </defs>
      <use xlink:href="#ArialMT-4d"/>
      <use xlink:href="#ArialMT-65" transform="translate(83.300781 0)"/>
      <use xlink:href="#ArialMT-64" transform="translate(138.916016 0)"/>
      <use xlink:href="#ArialMT-69" transform="translate(194.53125 0)"/>
      <use xlink:href="#ArialMT-61" transform="translate(216.748047 0)"/>
      <use xlink:href="#ArialMT-6e" transform="translate(272.363281 0)"/>
      <use xlink:href="#ArialMT-3d" transform="translate(327.978516 0)"/>
      <use xlink:href="#ArialMT-32" transform="translate(386.376953 0)"/>
      <use xlink:href="#ArialMT-31" transform="translate(441.992188 0)"/>
      <use xlink:href="#ArialMT-30" transform="translate(497.607422 0)"/>
      <use xlink:href="#ArialMT-2e" transform="translate(553.222656 0)"/>
      <use xlink:href="#ArialMT-30" transform="translate(581.005859 0)"/>
      <use xlink:href="#ArialMT-30" transform="translate(636.621094 0)"/>
     </g>
    </g>
   </g>
  </g>
 </g>
 <defs>
  <clipPath id="pda61b2f42a">
   <rect x="59.678125" y="29.151563" width="503.361875" height="283.981875"/>
  </clipPath>
 </defs>
</svg>
